<svg xmlns="http://www.w3.org/2000/svg" version="1.1" xmlns:xlink="http://www.w3.org/1999/xlink" xmlns:svgjs="http://svgjs.dev/svgjs" width="128" height="128" viewBox="0 0 128 128"><g transform="matrix(0.44782608695652176,0,0,0.44782608695652176,35.33913043478261,12.5)"><svg viewBox="0 0 125 225" data-background-color="#ffffff" preserveAspectRatio="xMidYMid meet" height="230" width="128" xmlns="http://www.w3.org/2000/svg" xmlns:xlink="http://www.w3.org/1999/xlink"><g id="tight-bounds" transform="matrix(1,0,0,1,0,0)"><svg viewBox="0 0 125 225" height="225" width="125"><g><svg></svg></g><g><svg viewBox="0 0 125 225" height="225" width="125"><g><path d="M8.188 130.945l1.455 1.82-0.727-2.366c-0.182-1.092-1.456 0.182-0.728 0.546M9.825 129.854c0.546 0.91 1.092 1.82 1.092 2.729 0 1.274 1.092 1.82 2.001 2.183-1.274-1.456-2.001-5.459-3.093-4.912M79.694 52.707c3.093 0 6.004-0.364 9.28 0.363 8.006 2.001 14.738 6.004 19.287 11.645l12.736 20.379c0.546 5.095 1.638 10.735 1.456 16.921 1.274 0 1.092-1.82 2.547-2.183-1.456 3.639-2.183 8.188-2.547 13.464-0.91-2.911 0-7.278 0.182-9.643-1.274 2.001-2.001 0.546-2.002-0.364 0.182-1.456-0.546-1.274-1.092-1.82-2.001-1.82-3.275-3.821-4.73-6.914 0.91-2.365 1.092-5.822-1.82-7.642-0.91-0.546-2.001-1.456-2.547-2.911-0.728-2.001-2.001-4.367-1.638-7.46 0.182-0.91-2.729 2.001-4.366 0.728-7.096-4.913-14.192-10.553-22.744-15.284-4.549 0-7.824-1.638-9.462-3.639-1.456-1.82-0.364-4.185 1.82-4.367 1.274 0 2.729-0.364 3.821 0.364 0.182-0.728 0.91-1.638 1.819-1.637M61.681 48.522l0.364 0.182c1.82 0.364 2.729 2.911 4.731 2.001 0 1.274 0.182 2.547-0.182 3.457-0.546 1.456-2.183 1.456-3.457 1.456-12.191-0.728-19.287 4.367-26.747 8.733-2.001 1.274-4.185 2.183-5.822 3.821-7.824 7.278-16.376 14.01-18.377 27.475l-1.638 14.92c-0.182 1.638-2.001 3.275-1.637 5.276l1.273 8.916c-1.274-1.274-2.001 0.364-1.637 1.092 0.182 0.546 0.91 2.365 2.001 0.727 1.456 2.729 2.911 8.006 4.913 10.372 6.186 7.278 14.192 13.828 20.742 20.378 1.638-0.364 2.911-0.364 3.275-1.456 0.546 1.092-0.546 2.183-1.455 2.366 2.911 1.82 6.186 3.457 10.553 3.821 5.64 0.364 10.917 1.274 15.829 2.547 2.547-0.728 5.095-1.092 7.824-1.274 0.91 0 1.456-1.456 2.548-1.819l0.182-1.82c1.092 1.638 0.91-0.546 0.182-1.637 1.274 1.092 1.638 2.001 2.183 2.729 0-0.546 1.456-2.547 1.456-0.182l0.363-2.365c0.546-0.364 0.728 2.001 1.274 0.364 0.546-1.638 1.638-0.364 2.729-0.91-0.364 0.728-0.182 2.183 1.092 1.274l1.456-1.274c0.91 2.183 2.365 1.274 3.093 0.91 8.006-5.095 16.012-11.099 23.653-17.104l-0.182 2.366 0.91-2.911c0.91 0.91 1.638 0.182 2.002-0.364 1.092-1.82 2.547-3.639 4.912-5.277-2.911 7.824-6.368 14.01-10.735 19.105l-1.819 2.183c0 1.274-0.364 2.911-1.82 3.093-0.728 0.182-2.183-0.364-3.275 0.728-0.546 0.728 1.274 2.183-0.182 1.092-1.274-0.91-2.547 0-4.003 0.364-1.092 0.364 0.728 1.456 1.092 2.183 0.364 0.728 0.728 1.456 0.546 2.366l-2.002-2.184c-2.365 1.274-3.821 3.639-5.822 5.459-0.91 0.728-0.546 2.001-0.546 3.093-1.274 0-2.729-0.364-3.457 0.364-0.546 0.728-0.364 1.82-0.364 2.911-1.82-0.182-2.001-2.911-3.639-2.365-1.638 0.364-3.457 0.546-4.913 1.455 1.092 2.183-1.82 0.91-1.455 1.274-2.729-1.638-5.095-2.911-8.006-1.82-6.186-2.001-13.828-1.092-19.469-0.364 0-0.91 0.182-1.82-0.182-2.001-0.364 0.91-1.456 0.546-1.273 0.546-3.457-2.365-6.914-3.821-10.553-5.823-3.275 0.364-6.368-1.274-7.278-2.183-2.547-2.365-5.459-1.092-7.824-1.638-5.095-1.274-6.914-6.55-7.46-10.189-0.364-1.82-1.82-2.547-2.366-2.365-2.365-7.642-6.004-14.556-8.915-21.652-0.728-1.82-0.546-3.639-0.546-5.641 0.91 0.364 1.82 0.182 1.638-1.091-0.91-6.004-3.093-10.553-5.459-14.92 1.274-6.186 1.456-13.464 4.367-18.923 2.547-4.913 7.278-7.46 10.553-11.645 1.092-1.456 1.092-3.457 2.183-4.731 3.639-3.639 7.278-7.46 11.281-10.735 1.82-1.456 4.003 0 6.732-0.546 0.91-3.275 4.549-6.186 8.006-5.276 1.456 0.364 4.367-3.457 5.277-3.821 1.456-0.546 0.728 1.456 0.728 2.729 3.457-2.729 8.188-4.185 12.554-5.822" fill="#091269" fill-rule="nonzero" stroke="none" stroke-width="1" stroke-linecap="butt" stroke-linejoin="miter" stroke-miterlimit="10" stroke-dasharray="" stroke-dashoffset="0" font-family="none" font-weight="none" font-size="none" text-anchor="none" style="mix-blend-mode: normal" data-fill-palette-color="tertiary"></path></g><g transform="matrix(1,0,0,1,39.325,86.2548076923077)"><svg viewBox="0 0 46.35 52.49038461538461" height="52.49038461538461" width="46.35"><g><svg viewBox="0 0 46.35 52.49038461538461" height="52.49038461538461" width="46.35"><g><svg viewBox="0 0 46.35 52.49038461538461" height="52.49038461538461" width="46.35"><g id="textblocktransform"><svg viewBox="0 0 46.35 52.49038461538461" height="52.49038461538461" width="46.35" id="textblock"><g><svg viewBox="0 0 46.35 52.49038461538461" height="52.49038461538461" width="46.35"><g transform="matrix(1,0,0,1,0,0)"><svg width="46.35" viewBox="0.98 -38.09 34.27 38.82" height="52.49038461538461" data-palette-color="#39cccc"><path d="M27.49-0.59L27.49-0.59Q23.73 0.73 20.06 0.73 16.38 0.73 13.64-0.33 10.89-1.39 8.79-3.42L8.79-3.42Q4.32-7.69 3.47-15.26L3.47-15.26Q3.1-18.43 0.98-19.46L0.98-19.46Q3.1-20.46 3.49-23.67 3.88-26.88 5.35-29.6 6.81-32.32 9.11-34.23L9.11-34.23Q13.79-38.09 20.85-38.09L20.85-38.09Q25.71-38.09 29-35.86L29-35.86Q32.06-33.81 32.79-30.52L32.79-30.52Q33.18-28.66 33.79-28.22L33.79-28.22Q34.03-28.03 34.4-27.86L34.4-27.86Q32.96-25.71 31.47-26.07L31.47-26.07Q31.1-26.15 30.79-26.27L30.79-26.27Q30.25-25.2 29.39-24.49 28.54-23.78 27.5-23.67 26.46-23.56 26.2-23.8L26.2-23.8Q26.81-24.71 26.81-26.1L26.81-26.1Q26.81-26.27 26.73-26.54L26.73-26.54Q26.61-26.49 26.51-26.49 26.42-26.49 26.15-26.48 25.88-26.46 25.39-26.66 24.9-26.86 24.49-27.2L24.49-27.2Q23.56-27.93 23.51-28.81L23.51-28.81Q23.51-29 23.58-29.2L23.58-29.2Q25.1-28.74 26.46-29.88L26.46-29.88Q27.39-30.69 27.34-31.59 27.29-32.5 26.84-33.09 26.39-33.69 25.56-34.13L25.56-34.13Q23.71-35.11 20.8-35.11L20.8-35.11Q14.18-35.11 14.18-27.44L14.18-27.44 14.18-23.39Q14.18-20.63 16.87-19.46L16.87-19.46Q14.18-18.16 14.18-15.23L14.18-15.23 14.18-8.69Q14.18-5.59 15.36-4.09 16.53-2.59 19.07-2.59L19.07-2.59Q22.07-2.59 23.05-5.27L23.05-5.27Q23.36-6.15 23.36-7.3L23.36-7.3 23.36-12.94Q22.9-13.4 22.07-13.4 21.24-13.4 20.7-12.99L20.7-12.99Q20.43-13.26 20.43-14.01 20.43-14.77 21.07-15.44 21.7-16.11 23.01-16.11 24.32-16.11 25.17-15.41L25.17-15.41Q26.34-16.11 27.69-16.11 29.03-16.11 30.13-15.38L30.13-15.38Q31.15-16.11 32.06-16.11 32.96-16.11 33.47-15.94 33.98-15.77 34.38-15.48L34.38-15.48Q35.25-14.82 35.25-13.84L35.25-13.84Q35.25-13.26 34.99-12.99L34.99-12.99Q34.42-13.4 33.54-13.4 32.67-13.4 31.84-11.74L31.84-11.74 31.84-3.74Q32.3-2.22 33.86-2.22L33.86-2.22Q34.45-2.22 34.99-2.64L34.99-2.64Q35.25-2.27 35.25-1.78L35.25-1.78Q35.25-0.78 34.16-0.15 33.06 0.49 31.02 0.49 28.98 0.49 27.49-0.59ZM8.98-6.47L8.98-6.47Q9.35-6.62 9.35-6.98L9.35-6.98Q9.35-7.52 8.84-8.68 8.33-9.84 7.9-12.61 7.47-15.38 7.47-19.04L7.47-19.04Q7.47-24.98 8.91-29.17L8.91-29.17Q9.08-29.79 9.08-30.1 9.08-30.42 8.76-30.52L8.76-30.52Q7.62-29.08 7.13-27.66L7.13-27.66Q6.23-25.07 5.69-20.65L5.69-20.65Q5.62-20.02 4.25-19.46L4.25-19.46Q5.62-18.85 5.69-18.21L5.69-18.21Q6.57-10.64 7.91-8.11L7.91-8.11Q8.4-7.2 8.98-6.47ZM25.88-12.21L25.88-5Q27.29-5.88 27.29-8.11L27.29-8.11 27.29-9.5Q27.29-11.57 25.88-12.21L25.88-12.21ZM31.57-5.05L31.64-4.57 31.57-5.05Z" opacity="1" transform="matrix(1,0,0,1,0,0)" fill="#39cccc" class="undefined-text-0" data-fill-palette-color="primary" id="text-0"></path></svg></g></svg></g></svg></g></svg></g><g></g></svg></g></svg></g></svg></g><defs></defs></svg><rect width="125" height="225" fill="none" stroke="none" visibility="hidden"></rect></g></svg></g></svg>